<svg width="188" height="211" viewBox="0 0 188 211" fill="none" xmlns="http://www.w3.org/2000/svg">
                <path d="M21.5784 156.35C30.0756 170.798 55.5208 192.733 89.3241 164.889M89.3241 164.889C131.578 130.084 89.8228 106.093 64.6371 122.315C39.4513 138.537 60.2656 168.918 89.3241 164.889ZM89.3241 164.889C101.126 165.039 127.714 162.17 139.65 149.495C154.57 133.651 146.96 97.4384 135.46 77.4384" stroke="#C4C4C4" stroke-opacity="0.7" stroke-width="3" stroke-dasharray="9 9"/>
                <path d="M115.908 51.669C116.33 44.9536 124.35 41.7281 129.305 46.2808L144.919 60.6281C149.251 64.6085 147.949 71.7458 142.491 73.941L125.545 80.7568C120.087 82.952 114.206 78.7034 114.576 72.8321L115.908 51.669Z" fill="#C4C4C4" fill-opacity="0.7"/>
                </svg>